<svg width="201px" height="57px" viewBox="0 0 201 57" version="1.1" xmlns="http://www.w3.org/2000/svg"><g stroke="none" stroke-width="1" fill="none" fill-rule="evenodd"><rect x="0" y="0" width="201" height="57"/><path d="m151.2 35.4-5.6-13.7h-4.1l-5.6 13.7h3.2l.9-2.3h7l1 2.3h3.2Zm-7.7-11.5 2.5 6.6h-5l2.5-6.6Zm-12.2 4.3 1-1.8v9h3V21.7H132L128 29l-4.3-7.3h-3.2v13.7h2.8v-9l1 1.8 3.5 5.8h.1l3.5-5.8Zm65.8 0 1-1.8v9h2.9V21.7h-3l-4.3 7.3-4.3-7.3h-3.2v13.7h2.8v-9l1 1.8 3.5 5.8h.1l3.5-5.8Zm-81.4 3.2v.1c0 1-.6 1.3-1.9 1.3h-3c-2.1 0-2.5-.2-2.5-2.7v-3c0-2.5.4-2.8 2.6-2.8h3c1.2 0 1.8.2 1.8 1.3h3c0-3-1-4-4.7-4h-3.8c-3.4 0-4.8 1.4-4.8 4.8v4.4c0 3.3 1.4 4.7 4.8 4.7h3.8c3.6 0 4.8-1 4.8-4h-3Zm50 0v.1c0 1-.6 1.3-1.9 1.3h-2.9c-2.2 0-2.5-.2-2.5-2.7v-3c0-2.5.3-2.8 2.5-2.8h3c1.2 0 1.8.2 1.8 1.3h3c0-3-1.1-4-4.7-4h-3.8c-3.4 0-4.8 1.4-4.8 4.8v4.4c0 3.3 1.4 4.7 4.8 4.7h3.8c3.6 0 4.7-1 4.7-4h-3Zm15.5.1c0 1-.6 1.3-2 1.3h-3.5c-2.2 0-2.5-.2-2.5-2.7v-3c0-2.5.3-2.8 2.5-2.8h3.4c1.3 0 2 .2 2 1.3h3c0-3-1.2-4-4.8-4H175c-3.5 0-4.8 1.4-4.8 4.8v4.4c0 3.3 1.3 4.7 4.8 4.7h4.2c3.6 0 4.8-1 4.8-4V28h-7v2.3h4v1.3ZM4.5 25.2c1.5 0 1.9.9 1.9 1.7a1.4 1.4 0 0 1-1 1.4A1.6 1.6 0 0 1 6.8 30c0 .8-.5 2-2.3 2H0v-6.8h4.5ZM4 28c.4 0 .9-.1.9-.9 0-.6-.4-.8-1.2-.8H1.4V28h2.7ZM4 31c.6 0 1.2-.2 1.2-1 0-.7-.4-1-1-1H1.4v2H4Zm11.4-5.8v1H11V28h4.2v1H11v2h4.5v1h-6v-6.8h6Zm2.2 1v-1H24v1h-2.6V32h-1.4v-5.7h-2.5Zm8.1 0v-1h6.5v1h-2.5V32h-1.4v-5.7h-2.6Zm14.8-1v1H36V28h4.3v1H36v2h4.5v1h-5.9v-6.8h5.9Zm7 0c1.8 0 2.4.8 2.4 1.9a1.6 1.6 0 0 1-1.2 1.6c.8.2 1 .9 1 1.8 0 .4 0 1.1.3 1.5h-1.5c-.2-.3-.2-.7-.2-1 0-1-.1-1.7-1.2-1.7h-2.4V32h-1.4v-6.8h4.3Zm.9 2c0-.7-.5-1-1.2-1h-2.5v2h2.5c.8 0 1.2-.2 1.2-1Zm10.1-2 1.5 5.3 1.7-5.3h1.5l1.7 5.3 1.5-5.3H68L65.7 32H64l-1.7-5.2-1.6 5.2h-1.6L57 25.2h1.5Zm15.3 0 3 6.8h-1.5l-.8-1.7h-3.1l-.7 1.7H69l3-6.8h1.7Zm-.8 1.2-1.2 2.9h2.3L73 26.4Zm4.7-1.2h1.8l1.9 3 2-3H85l-3 4.2V32h-1.3v-2.6l-3-4.2Zm15.6 2h-1.6c0-.5-.5-1.1-1.7-1.1-.9 0-1.5.3-1.5 1 0 1.5 5 0 5 2.9 0 1.8-1.8 2.2-3.2 2.2-2.5 0-3.4-1-3.5-2.4h1.6c0 1 .8 1.3 2 1.3.8 0 1.6-.2 1.6-1 0-1.6-5-.2-5-3 0-1.5 1.3-2 3-2 1 0 3 .1 3.3 2Z" fill="#051039"/><path d="M164 1.1a.2.2 0 0 0-.2-.4c-7.6-2.2-30.8 0-41.7 16.7-.2.3-.2.3 0 .5 3.8-6.3 12.5-11.2 23-12.3a49 49 0 0 1 13.1.7c.4 0 .4 0 .7-.2 1.8-1.6 3.5-3.2 5-5ZM142.4 56a.2.2 0 0 0 .1.4c7.7 2.2 30.8 0 41.8-16.7.1-.3 0-.3-.1-.4-3.8 6.2-12.5 11.1-23 12.2a49 49 0 0 1-13-.7c-.5 0-.5 0-.8.2a46 46 0 0 0-5 5Z" fill="#FF0000" fill-rule="nonzero"/></g></svg>