<svg xmlns="http://www.w3.org/2000/svg" viewBox="0 0 1755.32 817.44"><defs><style>.a{fill:#bd0f72;}</style></defs><title>ONE_MAGENTA_RGB</title><path class="a" d="M0,625.68V0H555.23V625.68ZM134.9,503.87H420.19V121.81H134.9Z"/><polygon class="a" points="1286 625.66 1286 0.02 1755.32 0.02 1755.32 121.42 1420.97 121.42 1420.97 247.88 1755.32 247.88 1755.32 367.39 1420.97 367.39 1420.97 504.27 1755.32 504.27 1755.32 625.66 1286 625.66"/><path class="a" d="M43.37,817.44C18.25,817.44,0,799.82,0,775.57s18.25-41.9,43.37-41.9,43.23,17.62,43.23,41.9S68.43,817.44,43.37,817.44Zm0-66.68c-13.59,0-23.44,10.45-23.44,24.81s9.85,24.76,23.44,24.76,23.32-10.4,23.32-24.76C66.68,761,57.1,750.76,43.37,750.76Z"/><path class="a" d="M141.34,733.67c-25.4,0-43.85,17.62-43.85,41.9s18.46,41.87,43.85,41.87c19.53,0,29.73-11.2,34.88-20.89l-16.71-7.92a20.66,20.66,0,0,1-18.17,11.71c-13.63,0-23.92-10.64-23.92-24.76,0-14.36,10.06-24.81,23.92-24.81a20.69,20.69,0,0,1,18.17,11.73l16.72-8C171.21,744.8,161.12,733.67,141.34,733.67Z"/><polygon class="a" points="192.42 815.93 192.42 735.04 251.28 735.04 251.28 751.89 211.97 751.89 211.97 766.49 250.41 766.49 250.41 783.34 211.97 783.34 211.97 799.09 251.28 799.09 251.28 815.93 192.42 815.93"/><path class="a" d="M328.71,815.94l-4.08-11.88H290.79l-4.11,11.88H264.42L294.88,735h25.67L351,815.94ZM296,787.21h23.39l-11.61-34.7Z"/><polygon class="a" points="419.2 815.93 382.95 766.32 382.95 815.93 363.38 815.93 363.38 735.04 383.99 735.04 418.78 782.32 418.78 735.04 438.45 735.04 438.45 815.93 419.2 815.93"/><polygon class="a" points="568.1 815.93 531.83 766.32 531.83 815.93 512.28 815.93 512.28 735.04 532.89 735.04 567.68 782.32 567.68 735.04 587.38 735.04 587.38 815.93 568.1 815.93"/><polygon class="a" points="609.02 815.93 609.02 735.04 667.85 735.04 667.85 751.89 628.58 751.89 628.58 766.49 667 766.49 667 783.34 628.58 783.34 628.58 799.09 667.85 799.09 667.85 815.93 609.02 815.93"/><polygon class="a" points="705.68 815.93 705.68 751.89 682.51 751.89 682.51 735.04 748.3 735.04 748.3 751.89 725.26 751.89 725.26 815.93 705.68 815.93"/><polygon class="a" points="831.35 815.93 818.11 764.81 818.11 764.81 804.92 815.93 783.72 815.93 760.55 735.04 782.62 735.04 795.72 789.51 795.72 789.53 810.63 735.04 825.62 735.04 840.47 789.53 840.47 789.51 853.52 735.04 875.7 735.04 852.55 815.93 831.35 815.93"/><path class="a" d="M924.06,817.44c-25.12,0-43.36-17.62-43.36-41.87s18.24-41.9,43.36-41.9,43.25,17.62,43.25,41.9S949.12,817.44,924.06,817.44Zm0-66.68c-13.59,0-23.44,10.45-23.44,24.81s9.85,24.76,23.44,24.76,23.3-10.4,23.3-24.76C947.37,761,937.78,750.76,924.06,750.76Z"/><path class="a" d="M1026.68,815.94l-13.88-27.73h-12.3v27.73H980.94V735h40.5c16.67,0,27.86,10.69,27.86,26.62,0,17.09-12.15,22.66-15.89,24l-1,.33,16.64,30Zm-25.14-44.6h17.73c6.66,0,11.15-3.94,11.15-9.78s-4.49-9.67-11.15-9.67h-17.73Z"/><polygon class="a" points="1112.69 815.93 1090.6 784.24 1084.1 792.34 1084.1 815.93 1064.53 815.93 1064.53 735.04 1084.1 735.04 1084.1 770.76 1110.83 735.04 1134.78 735.04 1103.44 772.8 1136.59 815.93 1112.69 815.93"/><polygon class="a" points="1199.87 815.93 1199.87 735.04 1258.7 735.04 1258.7 751.89 1219.44 751.89 1219.44 766.49 1257.84 766.49 1257.84 783.34 1219.44 783.34 1219.44 799.09 1258.7 799.09 1258.7 815.93 1199.87 815.93"/><polygon class="a" points="1331.87 815.93 1313.41 787.45 1294.95 815.93 1271.95 815.93 1300.08 774.42 1273.77 735.04 1296.81 735.04 1313.41 761.74 1329.87 735.04 1353.02 735.04 1326.73 774.31 1354.88 815.93 1331.87 815.93"/><path class="a" d="M1367,815.94V735h40.52c19.25,0,27.86,13.37,27.86,26.62s-8.61,26.51-27.86,26.51h-20.94v27.75Zm19.59-44.6h17.71c6.57,0,11.18-4,11.18-9.67,0-5.87-4.49-9.78-11.18-9.78h-17.71Z"/><path class="a" d="M1494.55,815.94l-13.9-27.73h-12.3v27.73h-19.59V735h40.55c16.64,0,27.84,10.69,27.84,26.62,0,17.09-12.15,22.66-15.87,24l-1,.33,16.62,30Zm-26.2-44.6h17.71c6.66,0,11.18-3.94,11.18-9.78s-4.51-9.67-11.18-9.67h-17.71Z"/><polygon class="a" points="1533.84 815.93 1533.84 735.04 1592.68 735.04 1592.68 751.89 1553.38 751.89 1553.38 766.49 1591.8 766.49 1591.8 783.34 1553.38 783.34 1553.38 799.09 1592.68 799.09 1592.68 815.93 1533.84 815.93"/><path class="a" d="M1606.58,805c9.05,8.23,21,12.42,35.54,12.42,21,0,33.57-10,33.57-26.78,0-18.81-18.44-22.75-31.89-25.63-8.3-1.77-14.83-3.16-14.83-7.57,0-3,1.7-6.57,9.8-6.57a39,39,0,0,1,24,8.28l10.62-14.58c-8.54-7.06-19.72-10.78-32.4-10.78-22,0-32,13.17-32,25.41,0,19.37,18.28,23.11,31.63,25.85,8.43,1.73,15.09,3.1,15.09,7.83,0,4.58-4.8,7.44-12.5,7.44a38.23,38.23,0,0,1-26.4-10.4Z"/><path class="a" d="M1686.22,805c9,8.23,21,12.42,35.52,12.42,21,0,33.57-10,33.57-26.78,0-18.81-18.44-22.75-31.91-25.63-8.26-1.77-14.81-3.16-14.81-7.57,0-3,1.7-6.57,9.81-6.57a39,39,0,0,1,24,8.28L1753,744.58c-8.54-7.06-19.72-10.78-32.38-10.78-22,0-32,13.17-32,25.41,0,19.37,18.28,23.11,31.65,25.85,8.41,1.73,15.07,3.1,15.07,7.83,0,4.58-4.78,7.44-12.53,7.44a38.1,38.1,0,0,1-26.36-10.4Z"/><path class="a" d="M1203.91.11h-135V397.44S807.35,59.49,760.25.11H637.32V625.68h135V227.5s215.28,279.93,308.93,398.18h122.62Z"/></svg>