<svg id="Layer_1" data-name="Layer 1" xmlns="http://www.w3.org/2000/svg" viewBox="0 0 782.61 175.45"><defs><style>.cls-1{fill:#00a3e0;}.cls-2{fill:#101820;}</style></defs><title>CHR_Logo_Horz_2C_RGB</title><polygon class="cls-1" points="55.9 41.76 72.24 32.32 72.24 71.63 75.97 73.78 79.7 71.63 79.7 32.32 96.05 41.76 99.78 35.29 75.97 21.55 52.16 35.29 55.9 41.76"/><polygon class="cls-1" points="46.2 128.09 29.86 118.66 63.9 99.01 63.9 94.7 60.16 92.54 26.13 112.19 26.13 93.32 18.66 93.32 18.66 120.81 42.47 134.56 46.2 128.09"/><path class="cls-1" d="M94,18.12,18,62V149.7l76,43.86,76-43.86V62Zm68.5,127.27L94,185,25.48,145.39V66.29L94,26.73l68.5,39.56Z" transform="translate(-18.02 -18.12)"/><polygon class="cls-1" points="105.74 47.36 122.08 56.79 75.97 83.42 29.86 56.79 46.2 47.36 42.47 40.89 18.66 54.64 18.66 82.13 26.13 82.13 26.13 63.26 72.24 89.88 72.24 143.13 55.9 133.69 52.16 140.16 75.97 153.9 99.78 140.16 96.05 133.69 79.7 143.13 79.7 89.88 125.82 63.26 125.82 82.13 133.28 82.13 133.28 54.64 109.47 40.89 105.74 47.36"/><polygon class="cls-1" points="125.82 93.32 125.82 112.19 91.78 92.54 88.05 94.69 88.05 99.01 122.08 118.66 105.74 128.09 109.47 134.56 133.28 120.81 133.28 93.32 125.82 93.32"/><path class="cls-1" d="M163.48,160.17h2.07c1.29,0,1.93.53,1.93,1.57a1.36,1.36,0,0,1-.42,1.1,2,2,0,0,1-1,.41l1.58,2.43h-.9l-1.49-2.37h-.9v2.37h-.83Zm.83,2.46h.86l.55,0a1.7,1.7,0,0,0,.47-.11.72.72,0,0,0,.32-.28.87.87,0,0,0,.13-.52.88.88,0,0,0-.11-.45.89.89,0,0,0-.29-.26,1.56,1.56,0,0,0-.4-.11,3,3,0,0,0-.43,0h-1.1Z" transform="translate(-18.02 -18.12)"/><path class="cls-1" d="M165.27,168.51a5.58,5.58,0,1,1,5.59-5.58A5.59,5.59,0,0,1,165.27,168.51Zm0-10.22a4.64,4.64,0,1,0,4.65,4.64A4.64,4.64,0,0,0,165.27,158.29Z" transform="translate(-18.02 -18.12)"/><path class="cls-2" d="M253.69,128.17c-2.63,3.54-7.18,8.4-12.85,8.4H228.18a12.7,12.7,0,0,1-6.28-1.82,33.47,33.47,0,0,1-7.39-7.19,10.26,10.26,0,0,1-1.62-5.77V89.9a10,10,0,0,1,1.62-5.67c1.22-1.72,5.27-6.07,7.39-7.29a13.83,13.83,0,0,1,6.28-1.82h12.66c5.67,0,10.22,5,12.85,8.4a33.09,33.09,0,0,1,2.13,3.55L245.49,90s-3-3.75-4.55-4.66a.63.63,0,0,0-.41-.1H228.59a1,1,0,0,0-.41.1,15.89,15.89,0,0,0-4.56,4.46,4.18,4.18,0,0,0-.1,1.11v30.78c0,1.22,3.14,3.85,4.66,4.66.1.1.61.1.71.1h11.54a1.15,1.15,0,0,0,.51-.1c2.12-1,4.55-4.76,4.55-4.76l10.33,2.73A18.63,18.63,0,0,1,253.69,128.17Z" transform="translate(-18.02 -18.12)"/><path class="cls-2" d="M265.14,136.07V123.31h12.45v12.76Z" transform="translate(-18.02 -18.12)"/><path class="cls-2" d="M320.92,136.07v-25H298.85v25H288.22V75.52h10.63v25.42h22.07V75.52h10.63v60.55Z" transform="translate(-18.02 -18.12)"/><path class="cls-2" d="M342.18,136.07V123.31h12.46v12.76Z" transform="translate(-18.02 -18.12)"/><path class="cls-2" d="M429.46,104.58A34.8,34.8,0,0,1,424,110a9.58,9.58,0,0,1-2.63,1.41l12,24.71H421.86l-11.24-23.9H399v23.9H388.35V75.52H416.8A13.08,13.08,0,0,1,424,77.75a35.5,35.5,0,0,1,5.47,5.57,11.32,11.32,0,0,1,1.82,6.18v8.9A11.08,11.08,0,0,1,429.46,104.58Zm-8.81-15a2.31,2.31,0,0,0-.1-.71c-.61-1.12-2.23-3.14-3.24-3.24H399v16.4H416.8c.91,0,2.94-1.93,3.75-3.34a1,1,0,0,0,.1-.41Z" transform="translate(-18.02 -18.12)"/><path class="cls-2" d="M487.57,127.46c-1.31,1.72-5.26,6.08-7.39,7.29a13,13,0,0,1-6.28,1.82H458.52a12.7,12.7,0,0,1-6.28-1.82c-2.13-1.21-6.18-5.57-7.39-7.29a10.18,10.18,0,0,1-1.62-5.77V90a10.18,10.18,0,0,1,1.62-5.77c1.21-1.72,5.26-6.07,7.39-7.29a12.7,12.7,0,0,1,6.28-1.82H473.9a13,13,0,0,1,6.28,1.82c2.13,1.22,6.08,5.57,7.39,7.29A10.18,10.18,0,0,1,489.19,90v31.69A10.18,10.18,0,0,1,487.57,127.46Zm-33.71-5.87s0,.3.1.4a16.1,16.1,0,0,0,4.45,4.36,1.15,1.15,0,0,0,.51.1H473.5a1.34,1.34,0,0,0,.5-.1,16.11,16.11,0,0,0,4.46-4.36,1,1,0,0,0,.1-.4V90.3s0-.4-.1-.5A16.84,16.84,0,0,0,474,85.34a1.09,1.09,0,0,0-.5-.1H458.92s-.4,0-.51.1A16.82,16.82,0,0,0,454,89.8a1.34,1.34,0,0,0-.1.5Z" transform="translate(-18.02 -18.12)"/><path class="cls-2" d="M543.36,128.37a33.81,33.81,0,0,1-5.37,5.47,13.39,13.39,0,0,1-7.29,2.23H502.25V75.52H530.7A13,13,0,0,1,538,77.85a33.81,33.81,0,0,1,5.37,5.47,11.17,11.17,0,0,1,1.72,6.28v7.49c0,4.25-1.62,6.48-4,8.81,2.33,2.32,4,4.45,4,8.7v7.7A10.88,10.88,0,0,1,543.36,128.37Zm-8.91-31.48V89.7a2.16,2.16,0,0,0-.1-.51c-.91-1.62-2.84-3.54-3.75-3.54H512.88v15.29H530.7c.91,0,2.94-1.83,3.65-3.35A1.73,1.73,0,0,0,534.45,96.89Zm0,25V114.7a1.21,1.21,0,0,0-.1-.5c-.91-1.62-2.84-3.44-3.75-3.44H512.88v15.18H530.7c.91,0,2.94-1.82,3.65-3.34A2.47,2.47,0,0,0,534.45,121.89Z" transform="translate(-18.02 -18.12)"/><path class="cls-2" d="M559.46,136.07V75.52h10.63v60.55Z" transform="translate(-18.02 -18.12)"/><path class="cls-2" d="M617.27,136.07l-21-40.2v40.2H585.68V75.52h11.44l20.76,40.7V75.52h10.63v60.55Z" transform="translate(-18.02 -18.12)"/><path class="cls-2" d="M685.71,127.46c-1.22,1.82-5.27,6.08-7.39,7.29a14.21,14.21,0,0,1-6.28,1.82H654.43c-6,0-10.23-4.86-12.86-8.4a21.28,21.28,0,0,1-1.82-3.14l10-3.34a24.73,24.73,0,0,0,4.45,4.66,1.82,1.82,0,0,0,.71.1h16.61a1.45,1.45,0,0,0,.6-.1c1.52-.81,4.56-3.85,4.56-4.66v-6a1.82,1.82,0,0,0-1.22-1.72l-26.32-7.5c-5.16-1.41-7.9-6.38-7.9-11V90a10.56,10.56,0,0,1,1.52-5.77,34.44,34.44,0,0,1,7.5-7.29,13.75,13.75,0,0,1,6.27-1.82h15c6.07,0,10.22,5,12.85,8.4a19.53,19.53,0,0,1,2,3.55L676.19,90a20.64,20.64,0,0,0-4.45-4.66s-.1-.1-.61-.1H656.86a1.48,1.48,0,0,0-.61.1c-1.62.81-4.36,3.65-4.36,4.46v5.06A1.75,1.75,0,0,0,653,96.58l26.42,7.7c5.17,1.41,7.9,6.48,7.9,11v6.38A9.83,9.83,0,0,1,685.71,127.46Z" transform="translate(-18.02 -18.12)"/><path class="cls-2" d="M743.12,127.46c-1.32,1.72-5.27,6.08-7.39,7.29a13,13,0,0,1-6.28,1.82H714.06a12.7,12.7,0,0,1-6.28-1.82c-2.12-1.21-6.17-5.57-7.39-7.29a10.26,10.26,0,0,1-1.62-5.77V90a10.26,10.26,0,0,1,1.62-5.77c1.22-1.72,5.27-6.07,7.39-7.29a12.7,12.7,0,0,1,6.28-1.82h15.39a13,13,0,0,1,6.28,1.82c2.12,1.22,6.07,5.57,7.39,7.29A10.26,10.26,0,0,1,744.74,90v31.69A10.26,10.26,0,0,1,743.12,127.46Zm-33.72-5.87s0,.3.1.4a16.25,16.25,0,0,0,4.46,4.36,1.09,1.09,0,0,0,.5.1H729a1.38,1.38,0,0,0,.51-.1A16.1,16.1,0,0,0,734,122a.92.92,0,0,0,.11-.4V90.3s0-.4-.11-.5a16.82,16.82,0,0,0-4.45-4.46,1.1,1.1,0,0,0-.51-.1H714.46s-.4,0-.5.1a17,17,0,0,0-4.46,4.46,1.34,1.34,0,0,0-.1.5Z" transform="translate(-18.02 -18.12)"/><path class="cls-2" d="M789.39,136.07l-21-40.2v40.2H757.8V75.52h11.44L790,116.22V75.52h10.63v60.55Z" transform="translate(-18.02 -18.12)"/></svg>